<svg viewBox="0 0 232 345" fill="none" xmlns="http://www.w3.org/2000/svg">
  <g clip-path="url(#clip0)">
    <path opacity="0.1" d="M232 329.801C232 338.212 180.051 345 116 345C51.9492 345 0 338.197 0 329.801C0 321.405 51.9492 314.597 116 314.597C180.051 314.597 232 321.405 232 329.801Z" fill="#3F3F3F"/>
    <path d="M116.999 317.541C116.851 330.276 177.359 330.988 177.528 318.253C177.696 305.518 164.258 295.039 147.536 294.841C130.813 294.643 117.148 304.805 116.999 317.541Z" fill="white"/>
    <path d="M41.5247 316.65C41.3763 329.385 101.885 330.098 102.053 317.362C102.221 304.627 88.7737 294.148 72.061 293.945C55.3482 293.742 41.6781 303.915 41.5247 316.65Z" fill="white"/>
    <path d="M140.159 281.329L156.342 295.939C152.403 298.084 148.26 299.831 143.973 301.154C136.631 303.385 129.452 304.172 123.263 303.697L120.369 285.569L140.159 281.329Z" fill="#E6EDED"/>
    <path d="M79.408 280.611L62.9871 294.88C66.8405 297.095 70.9063 298.919 75.1234 300.323C82.4161 302.727 89.966 303.786 96.1801 303.45L99.0893 285.297L79.408 280.611Z" fill="#E6EDED"/>
    <path d="M76.2168 2.9686C90.4014 20.1469 100.386 48.5662 102.256 61.2965C102.256 61.2965 95.9773 61.8408 95.3292 61.6527C86.1465 28.5826 65.0997 14.0513 63.6649 10.3901C62.2301 6.72882 63.6155 2.47383 66.7621 0.841108C69.9087 -0.791619 73.7183 -0.0593656 76.2168 2.9686Z" fill="white"/>
    <path d="M24.0945 123.691C23.5606 113.695 25.002 103.691 28.3361 94.2512C31.6703 84.8118 36.8319 76.1219 43.5259 68.6783C50.22 61.2346 58.3153 55.1832 67.3491 50.8697C76.383 46.5562 86.1783 44.0653 96.1752 43.5394H96.5314C106.527 43.0088 116.53 44.4525 125.967 47.7879C135.405 51.1234 144.094 56.2853 151.536 62.9789C158.979 69.6725 165.031 77.7667 169.345 86.7992C173.659 95.8317 176.152 105.626 176.682 115.622L182.233 220.665C182.763 230.661 181.32 240.664 177.984 250.102C174.649 259.54 169.487 268.229 162.794 275.672C156.1 283.115 148.006 289.166 138.974 293.481C129.942 297.795 120.148 300.288 110.152 300.817H109.796C99.8029 301.346 89.8037 299.901 80.3694 296.564C70.9351 293.228 62.2503 288.066 54.8112 281.373C47.372 274.68 41.3242 266.586 37.013 257.556C32.7019 248.525 30.2119 238.733 29.6852 228.74C29.6852 228.74 25.4897 149.949 24.0945 123.691Z" fill="white"/>
    <path d="M49.3715 110.169C50.272 127.179 76.7908 139.608 108.608 137.921C140.426 136.234 165.505 121.099 164.58 104.069C163.655 87.0392 137.161 74.6304 105.343 76.3176C73.5254 78.0047 48.4859 93.1594 49.3715 110.169Z" fill="#3F3F3F"/>
    <path d="M129.355 96.1681L131.331 96.0635C131.62 96.0482 131.91 96.09 132.183 96.1866C132.456 96.2832 132.708 96.4326 132.923 96.6264C133.139 96.8202 133.314 97.0545 133.439 97.316C133.564 97.5775 133.636 97.861 133.651 98.1504L133.756 100.127C133.787 100.712 133.584 101.286 133.192 101.723C132.799 102.159 132.25 102.421 131.664 102.452L129.688 102.557C129.102 102.588 128.528 102.385 128.092 101.993C127.656 101.6 127.394 101.051 127.363 100.465L127.258 98.4888C127.243 98.1986 127.285 97.9082 127.382 97.6343C127.479 97.3604 127.629 97.1084 127.824 96.8928C128.019 96.6772 128.255 96.5022 128.517 96.3778C128.78 96.2534 129.065 96.1822 129.355 96.1681V96.1681Z" fill="#00FFF8"/>
    <path d="M136.88 95.8052L138.856 95.7006C139.146 95.6852 139.436 95.7272 139.71 95.824C139.984 95.9208 140.236 96.0706 140.452 96.2648C140.668 96.459 140.843 96.6939 140.968 96.9559C141.094 97.218 141.166 97.5022 141.181 97.7922L141.286 99.7685C141.317 100.353 141.114 100.926 140.723 101.361C140.332 101.796 139.783 102.058 139.199 102.089L137.223 102.193C136.638 102.224 136.066 102.022 135.63 101.63C135.195 101.239 134.933 100.691 134.903 100.106L134.798 98.1301C134.783 97.8401 134.825 97.5499 134.921 97.276C135.018 97.0022 135.168 96.7501 135.362 96.5342C135.556 96.3183 135.791 96.1427 136.053 96.0175C136.315 95.8924 136.599 95.82 136.889 95.8047L136.88 95.8052Z" fill="#00FFF8"/>
    <path d="M121.289 105.88C121.258 105.295 121.46 104.721 121.852 104.285C122.243 103.849 122.792 103.586 123.377 103.554L125.356 103.451C125.646 103.435 125.936 103.477 126.209 103.574C126.483 103.671 126.735 103.821 126.95 104.015C127.166 104.21 127.341 104.445 127.465 104.707C127.59 104.969 127.662 105.253 127.676 105.543L127.78 107.522C127.794 107.813 127.75 108.104 127.652 108.378C127.553 108.652 127.401 108.904 127.205 109.119C127.008 109.334 126.772 109.508 126.508 109.632C126.244 109.755 125.958 109.825 125.667 109.838L123.688 109.942C123.399 109.957 123.109 109.915 122.835 109.818C122.561 109.721 122.31 109.571 122.094 109.377C121.878 109.183 121.703 108.947 121.579 108.685C121.454 108.423 121.383 108.139 121.368 107.849L121.289 105.88Z" fill="#00FFF8"/>
    <path d="M141.5 104.777C141.484 104.487 141.526 104.197 141.623 103.924C141.719 103.651 141.869 103.399 142.063 103.184C142.257 102.968 142.491 102.793 142.753 102.668C143.014 102.543 143.298 102.471 143.588 102.456L145.567 102.352C145.856 102.337 146.146 102.379 146.419 102.475C146.692 102.572 146.944 102.721 147.159 102.915C147.375 103.109 147.55 103.344 147.675 103.605C147.8 103.867 147.872 104.151 147.887 104.44L147.991 106.419C148.006 106.709 147.964 106.998 147.868 107.272C147.771 107.545 147.622 107.796 147.428 108.012C147.234 108.227 146.999 108.403 146.738 108.527C146.476 108.652 146.192 108.724 145.903 108.74L143.924 108.843C143.634 108.859 143.344 108.818 143.07 108.722C142.796 108.625 142.544 108.476 142.328 108.282C142.112 108.088 141.936 107.853 141.811 107.592C141.686 107.33 141.614 107.045 141.599 106.756L141.5 104.777Z" fill="#00FFF8"/>
    <path d="M71.2574 99.2544L73.2337 99.1498C73.523 99.1345 73.8126 99.1763 74.0858 99.2729C74.359 99.3695 74.6105 99.519 74.826 99.7128C75.0414 99.9065 75.2166 100.141 75.3415 100.402C75.4664 100.664 75.5385 100.947 75.5538 101.237L75.6584 103.213C75.6894 103.799 75.4865 104.373 75.0943 104.809C74.702 105.245 74.1526 105.507 73.5669 105.538L71.5906 105.643C71.0049 105.674 70.4309 105.471 69.9948 105.079C69.5587 104.687 69.2963 104.137 69.2653 103.551L69.1607 101.575C69.1297 100.989 69.3326 100.415 69.7248 99.9793C70.1171 99.5432 70.6665 99.2808 71.2522 99.2497L71.2574 99.2544Z" fill="#00FFF8"/>
    <path d="M78.7722 98.8824L80.7485 98.7778C81.3342 98.7468 81.9083 98.9498 82.3444 99.342C82.7804 99.7343 83.0429 100.284 83.0739 100.869L83.1785 102.846C83.2094 103.43 83.0069 104.003 82.6156 104.438C82.2242 104.873 81.676 105.135 81.0916 105.166L79.1153 105.271C78.826 105.286 78.5364 105.244 78.2632 105.147C77.99 105.051 77.7385 104.901 77.5231 104.708C77.3076 104.514 77.1324 104.279 77.0075 104.018C76.8827 103.757 76.8105 103.473 76.7952 103.184L76.6906 101.207C76.6596 100.622 76.8625 100.048 77.2547 99.6114C77.647 99.1753 78.1964 98.9129 78.7821 98.8819L78.7722 98.8824Z" fill="#00FFF8"/>
    <path d="M67.2493 106.551L65.273 106.655C64.056 106.719 63.1213 107.757 63.1853 108.974L63.2892 110.951C63.3532 112.168 64.3917 113.103 65.6087 113.039L67.585 112.935C68.8019 112.871 69.7366 111.832 69.6726 110.615L69.5687 108.639C69.5047 107.422 68.4663 106.487 67.2493 106.551Z" fill="#00FFF8"/>
    <path d="M85.4818 105.534L87.458 105.429C88.0437 105.398 88.6178 105.601 89.0539 105.994C89.49 106.386 89.7524 106.935 89.7834 107.521L89.888 109.497C89.919 110.083 89.716 110.657 89.3238 111.093C88.9316 111.529 88.3821 111.792 87.7964 111.823L85.8202 111.927C85.2358 111.958 84.663 111.756 84.2279 111.364C83.7928 110.973 83.531 110.425 83.5 109.84L83.3954 107.864C83.3644 107.278 83.5674 106.704 83.9596 106.268C84.3518 105.832 84.9013 105.57 85.487 105.539L85.4818 105.534Z" fill="#00FFF8"/>
    <path d="M187.804 186.922L173.678 176.389L43.8401 175.587L70.062 206.011L187.804 186.922Z" fill="#4297E1"/>
    <path d="M187.804 186.922V256.655L56.5948 259.129V186.922H187.804Z" fill="#1D70B8"/>
    <path d="M56.5948 259.129L43.8401 246.052V175.587L56.5948 186.922V259.129Z" fill="#134877"/>
    <path d="M22.6498 227.869C22.6498 236.181 24.807 242.915 33.1139 242.915C41.4208 242.915 67.5488 240.773 67.5488 232.466C67.5488 224.158 41.4208 212.828 33.1139 212.828C24.807 212.828 22.6498 219.562 22.6498 227.869Z" fill="#E6EDED"/>
    <path d="M188.298 240.52C180.689 238.047 173.555 236.32 173.555 232.05C173.555 227.78 180.457 222.709 188.298 218.79C195.71 215.089 199.604 244.162 188.298 240.52Z" fill="#E6EDED"/>
  </g>
</svg>
